<svg width="853" height="403" viewBox="0 0 853 403" fill="none" xmlns="http://www.w3.org/2000/svg">
<g clip-path="url(#clip0_832_6684)">
<path fill-rule="evenodd" clip-rule="evenodd" d="M331.004 1.2C330.079 2.125 329.804 45.973 329.804 192.477C329.804 371.895 329.902 382.694 331.554 385.027C332.646 386.57 333.492 390.134 333.804 394.5L334.304 401.5L342.72 401.793C353.349 402.163 354.902 401.672 351.91 398.884C350.129 397.225 349.76 395.924 350.003 392.163L350.304 387.5L437.485 387.245C519.875 387.003 524.695 387.086 525.202 388.745C525.497 389.71 525.564 392.284 525.351 394.464C524.724 400.872 525.89 402 533.139 402C536.678 402 539.926 401.478 540.604 400.8C541.264 400.14 541.806 397.102 541.808 394.05C541.81 390.007 542.422 387.549 544.058 385L546.304 381.5L545.99 192.564C545.791 72.91 545.32 2.963 544.705 1.814C543.776 0.0789953 539.102 0 437.969 0C357.041 0 331.922 0.281997 331.004 1.2ZM244.304 27.758C214.604 41.286 190.179 52.437 190.026 52.538C189.874 52.639 191.567 80.529 193.789 114.515C196.011 148.501 197.711 176.423 197.566 176.564C197.422 176.704 177.504 157.306 153.304 133.456C129.104 109.606 108.901 90.072 108.408 90.046C107.666 90.008 4.08828 136.715 0.0102769 138.927C-0.834723 139.385 50.4453 184.865 147.873 270.064C229.909 341.804 297.654 400.645 298.417 400.823C299.596 401.098 299.804 371.325 299.804 202.073C299.804 92.583 299.467 3.03599 299.054 3.08099C298.641 3.12599 274.004 14.23 244.304 27.758ZM508.804 140.525V278.05L506.239 279.025C503.448 280.086 338.962 280.417 335.054 279.37L332.804 278.767V141.55C332.804 66.081 333.104 4.03301 333.471 3.66701C333.837 3.30001 373.437 3 421.471 3H508.804V140.525ZM542.262 8.25C542.239 10.863 542.127 23.816 542.012 37.035C541.809 60.456 541.755 61.044 539.87 60.035C537.01 58.505 515.286 58.686 514.107 60.25C513.565 60.97 513.229 72.531 513.315 87.5C513.398 101.8 513.137 114.4 512.735 115.5C512.007 117.494 510.97 9.54701 511.675 5.22501C512.045 2.96001 512.116 2.95001 527.175 3.22501L542.304 3.5L542.262 8.25ZM342.471 12.667C342.104 13.033 341.804 71.035 341.804 141.56C341.804 257.563 341.955 269.844 343.386 270.393C344.256 270.727 379.099 271 420.814 271C488.433 271 496.832 270.83 498.233 269.429C499.645 268.017 499.804 255.038 499.804 141.51C499.804 72.02 499.531 14.452 499.197 13.582C498.651 12.158 490.817 12 420.864 12C378.114 12 342.837 12.3 342.471 12.667ZM496.558 141.25L496.812 268H421.367C375.559 268 345.695 267.632 345.343 267.063C345.025 266.548 344.736 209.785 344.702 140.923C344.65 37.678 344.873 15.571 345.972 14.871C346.704 14.405 380.829 14.131 421.804 14.262L496.304 14.5L496.558 141.25ZM351.63 28.25C350.397 29.241 350.202 30.743 350.689 35.5C351.027 38.8 351.05 45.325 350.74 50L350.177 58.5L349.99 51.809C349.745 43.01 347.804 41.671 347.804 50.301C347.804 53.832 347.529 58.727 347.193 61.178C346.042 69.576 340.787 69 418.509 69C495.868 69 496.967 68.91 493.733 62.867C493.144 61.767 492.053 53.896 491.309 45.377C490.563 36.841 489.417 29.239 488.757 28.444C487.856 27.357 485.053 27.004 477.432 27.015C471.861 27.024 466.7 27.413 465.962 27.881C465.123 28.413 464.48 31.282 464.249 35.529C463.715 45.329 461.804 46.401 461.804 36.9C461.804 32.4 461.324 28.92 460.604 28.2C459.819 27.415 455.678 27 448.639 27C436.076 27 435.804 27.206 435.804 36.743C435.804 40.585 435.262 43.289 434.237 44.559C432.793 46.346 432.717 45.839 433.269 38.142C433.676 32.472 433.497 29.335 432.714 28.392C431.196 26.563 410.806 26.398 409.004 28.2C408.267 28.937 407.759 32.893 407.687 38.45C407.566 47.849 406.319 61.621 405.827 59C405.673 58.175 405.266 50.75 404.925 42.5L404.304 27.5L392.947 27.216C385.43 27.028 381.119 27.323 380.197 28.089C379.123 28.98 378.804 32.582 378.804 43.822C378.804 62.72 376.883 61.839 376.345 42.695C376.135 35.198 375.675 28.601 375.324 28.033C374.376 26.499 353.572 26.69 351.63 28.25ZM373.37 45.75L373.594 61H363.449H353.304L353.498 45.75C353.605 37.363 353.718 30.371 353.748 30.214C353.779 30.056 358.156 30.056 363.475 30.214L373.146 30.5L373.37 45.75ZM402.15 45.782L402.304 61.063L391.898 60.782L381.491 60.5L381.718 46.041C381.843 38.088 382.174 31.21 382.455 30.756C382.736 30.301 387.247 30.058 392.48 30.215L401.995 30.5L402.15 45.782ZM430.448 45.5L430.304 60.999L420.054 61H409.804V48.065C409.804 40.951 410.243 33.976 410.779 32.565C411.731 30.062 411.983 30 421.173 30H430.592L430.448 45.5ZM459.257 45.75L459.304 61H449.054H438.804V46.083C438.804 35.095 439.133 31.029 440.054 30.644C440.742 30.357 445.333 30.207 450.257 30.311L459.21 30.5L459.257 45.75ZM487.149 30.75C487.404 31.162 487.939 38.089 488.337 46.142C489.189 63.341 490.098 62.205 476.304 61.173L467.304 60.5L467.016 47.5C466.602 28.874 465.943 30 477.264 30C482.446 30 486.894 30.338 487.149 30.75ZM536.804 64.975C536.804 67.756 536.636 67.887 534.239 66.975C530.483 65.547 522.718 65.797 519.554 67.447C516.809 68.879 516.804 68.875 516.804 65.441V62H526.804H536.804V64.975ZM491.258 64.926C492.403 66.779 480.117 67.085 416.387 66.795C365.554 66.564 351.38 66.229 351.054 65.25C350.723 64.258 365.087 64 420.662 64C462.555 64 490.916 64.372 491.258 64.926ZM534.301 71.991C535.307 75.159 534.053 76 528.327 76C522.23 76 519.804 75.315 519.804 73.593C519.804 71.136 522.375 70 527.937 70C532.782 70 533.767 70.308 534.301 71.991ZM351.471 75.667C351.104 76.033 350.715 82.896 350.605 90.917C350.496 98.938 350.251 102.238 350.061 98.25C349.872 94.262 349.351 91 348.904 91C347.71 91 346.827 112.175 347.934 114.244C348.817 115.893 353.128 116 418.69 116C485.317 116 494.803 115.645 494.804 113.152C494.804 112.793 462.146 112.624 422.229 112.775C372.832 112.963 349.857 112.723 350.288 112.025C350.712 111.341 374.326 111 421.394 111C479.794 111 491.956 110.768 492.387 109.644C492.673 108.898 492.37 103.61 491.713 97.894C491.056 92.177 490.245 84.8 489.911 81.5L489.304 75.5H477.304H465.304L464.51 82.5C463.322 92.981 462.406 93.492 461.825 84L461.304 75.5L449.947 75.216C442.43 75.028 438.119 75.323 437.197 76.089C436.266 76.861 435.799 79.443 435.789 83.872C435.78 87.518 435.337 91.175 434.804 92C434.134 93.037 433.83 91.017 433.819 85.45C433.81 80.542 433.336 76.932 432.604 76.2C430.912 74.508 410.41 74.552 409.042 76.25C408.488 76.938 407.664 84.25 407.211 92.5L406.387 107.5L405.515 92.009C404.96 82.164 404.216 76.247 403.473 75.774C401.471 74.501 381.338 74.866 380.004 76.2C379.183 77.021 378.804 81.911 378.804 91.7C378.804 100.567 378.424 106 377.804 106C377.186 106 376.804 100.811 376.804 92.434C376.804 84.973 376.338 77.998 375.769 76.934C374.839 75.197 373.582 75 363.435 75C357.222 75 351.837 75.3 351.471 75.667ZM459.24 93L459.176 108.5H449.24H439.304L438.695 104C438.36 101.525 438.31 94.681 438.584 88.791L439.083 78.082L446.194 77.718C450.104 77.518 454.654 77.387 456.304 77.427L459.304 77.5L459.24 93ZM373.304 93.5V108.5H363.328H353.352L353.514 93.5C353.604 85.25 353.705 78.371 353.74 78.214C353.775 78.056 358.192 78.056 363.554 78.214L373.304 78.5V93.5ZM402.1 93.5L402.206 108.5H392.255H382.304L381.773 94.5C381.481 86.8 381.422 79.922 381.643 79.216C381.942 78.258 384.575 78.005 392.02 78.216L401.995 78.5L402.1 93.5ZM431.003 92.601C431.168 100.632 431.042 107.624 430.721 108.139C430.401 108.655 425.676 108.947 420.221 108.788L410.304 108.5L410.024 94.548C409.871 86.875 409.969 80.012 410.243 79.298C410.605 78.354 413.462 78 420.721 78H430.701L431.003 92.601ZM488.332 91.682C488.793 100.292 488.698 105.945 488.075 106.932C487.286 108.184 485.092 108.5 477.195 108.5H467.304L467.028 93.25L466.752 78H477.176H487.599L488.332 91.682ZM535.638 78.876C537.877 80.296 534.442 81 525.281 81C517.588 81 514.868 80.269 516.498 78.639C517.448 77.689 534.09 77.895 535.638 78.876ZM528.386 104H536.804V106.975C536.804 109.813 536.655 109.917 533.554 109.225C529.323 108.281 523.016 108.301 519.554 109.269C516.918 110.006 516.804 109.888 516.804 106.412C516.804 103.516 517.123 102.908 518.386 103.393C519.256 103.727 523.756 104 528.386 104ZM534.595 119.603L534.886 126.707L528.878 127.335C520.327 128.228 519.804 127.862 519.804 120.975C519.804 112.06 519.977 111.867 527.677 112.207L534.304 112.5L534.595 119.603ZM354.054 123.014C351.944 123.878 351.804 124.524 351.804 133.409C351.804 138.646 351.357 143.158 350.804 143.5C350.175 143.889 349.799 141.591 349.79 137.309C349.774 129.199 348.938 125.181 347.681 127.165C346.214 129.48 346.617 148.6 348.159 149.88C349.673 151.136 483.169 151.418 490.222 150.18C492.377 149.802 494.289 149.044 494.472 148.496C494.687 147.852 489.058 147.624 478.554 147.851C469.617 148.044 462.679 147.819 463.137 147.351C463.595 146.883 470.345 146.275 478.137 146L492.304 145.5L492.597 137.084C492.758 132.455 492.598 127.955 492.24 127.084C491.075 124.247 489.953 128.89 489.844 137C489.771 142.435 489.472 144.035 488.759 142.812C488.217 141.884 487.893 137.312 488.039 132.653C488.185 127.994 488.07 123.945 487.783 123.654C486.873 122.73 472.084 121.713 469.39 122.389C466.826 123.033 466.804 123.122 466.804 132.96C466.804 138.496 466.362 143.155 465.804 143.5C465.165 143.895 464.804 140.844 464.804 135.059C464.804 130.077 464.406 126 463.921 126C462.551 126 461.833 129.863 461.818 137.309C461.809 141.591 461.433 143.889 460.804 143.5C460.252 143.159 459.804 138.668 459.804 133.476C459.804 122.266 459.549 122 448.804 122C438.068 122 437.842 122.237 437.6 133.785L437.397 143.5L437.06 135.25C436.69 126.177 434.804 123.775 434.804 132.375C434.804 138.879 433.868 144 432.679 144C432.198 144 431.804 139.527 431.804 134.059C431.804 128.591 431.394 123.864 430.892 123.555C430.391 123.245 425.631 122.881 420.316 122.746C410.835 122.505 410.604 122.553 408.227 125.306C406.131 127.733 405.804 129.117 405.804 135.556C405.804 139.852 405.381 143 404.804 143C404.212 143 403.804 139.374 403.804 134.122C403.804 128.132 403.388 124.9 402.525 124.183C400.611 122.595 382.203 122.21 380.682 123.726C379.977 124.428 379.184 129.133 378.826 134.726C378.159 145.144 377.357 144.431 376.318 132.5C375.983 128.65 375.168 124.99 374.506 124.367C372.933 122.884 356.954 121.827 354.054 123.014ZM372.604 126.2C374.087 127.683 374.211 140.371 372.769 143.066C371.882 144.723 370.622 145 363.969 145C359.263 145 355.731 144.527 355.004 143.8C354.281 143.077 353.804 139.578 353.804 135C353.804 130.422 354.281 126.923 355.004 126.2C356.607 124.597 371.001 124.597 372.604 126.2ZM400.604 126.2C401.327 126.923 401.804 130.422 401.804 135C401.804 139.578 401.327 143.077 400.604 143.8C399.881 144.523 396.382 145 391.804 145C387.226 145 383.727 144.523 383.004 143.8C382.281 143.077 381.804 139.578 381.804 135C381.804 130.422 382.281 126.923 383.004 126.2C384.607 124.597 399.001 124.597 400.604 126.2ZM428.304 135V144.5L423.307 144.815C420.558 144.988 416.846 144.855 415.057 144.52L411.804 143.909V135.121C411.804 130.288 412.121 126.016 412.509 125.628C412.897 125.241 416.609 125.053 420.759 125.212L428.304 125.5V135ZM457.596 133.847C457.781 139.141 457.462 142.707 456.724 143.597C455.382 145.214 444.21 145.542 441.826 144.035C440.799 143.385 440.232 140.798 439.967 135.555C439.419 124.702 439.275 124.866 449.038 125.209L457.304 125.5L457.596 133.847ZM484.222 125.607C485.49 126.093 485.804 127.873 485.804 134.572C485.804 144.143 485.122 145.01 477.62 144.986C468.875 144.959 468.804 144.879 468.804 135.05C468.804 130.256 469.104 126.033 469.471 125.667C470.304 124.833 482.082 124.786 484.222 125.607ZM532.304 131C531.514 132.278 522.782 132.278 520.804 131C519.754 130.322 521.348 130.026 526.113 130.015C530.401 130.006 532.693 130.37 532.304 131ZM513.73 176.58C513.567 211.792 513.784 220.271 514.882 221.594C516.036 222.985 518.102 223.165 529.019 222.825L541.804 222.426V267.32C541.804 309.726 541.707 312.168 540.054 311.384C537.284 310.069 518.176 309.73 515.889 310.955C514.451 311.724 513.648 313.546 513.107 317.268L512.346 322.5L511.684 316.5C510.134 302.471 511.386 131.624 513.031 132.64C513.546 132.959 513.845 151.711 513.73 176.58ZM527.518 134.562L536.304 134.623L536.578 152.488C536.728 162.313 536.503 170.696 536.078 171.116C535.652 171.536 531.029 171.971 525.804 172.084L516.304 172.289L515.988 160.395C515.607 146.017 516.635 131.109 517.87 133.106C518.496 134.119 521.136 134.517 527.518 134.562ZM458.721 147.624C458.95 147.831 434.65 147.906 404.721 147.792C371.845 147.666 356.044 147.335 364.804 146.955C379.119 146.333 457.913 146.895 458.721 147.624ZM351.804 167.441C351.804 172.656 351.356 177.159 350.804 177.5C350.167 177.894 349.804 175.01 349.804 169.559C349.804 160.993 348.604 158.248 347.429 164.125C346.438 169.079 346.703 181.942 347.839 184.066C348.848 185.95 350.697 186 419.405 186C464.533 186 490.609 185.64 491.805 185C493.483 184.101 493.623 183.053 493.177 174.75C492.577 163.597 492.056 160.726 490.775 161.518C490.241 161.848 489.804 165.718 489.804 170.118C489.804 175.503 489.457 177.904 488.743 177.462C488.125 177.08 487.737 173.614 487.814 169.153C487.886 164.944 487.913 160.712 487.875 159.75C487.812 158.199 486.61 158 477.304 158H466.804V167.941C466.804 173.49 466.362 178.155 465.804 178.5C465.166 178.895 464.804 175.863 464.804 170.118C464.804 165.168 464.354 160.84 463.804 160.5C463.171 160.109 462.804 162.629 462.804 167.359C462.804 175.102 462.23 178 460.697 178C460.206 178 459.804 173.5 459.804 168V158H448.959C435.735 158 434.811 158.625 434.79 167.579C434.775 174.206 434.009 178 432.687 178C432.202 178 431.804 173.5 431.804 168V158H420.459C406.125 158 405.804 158.259 405.804 169.829C405.804 181.4 403.937 180.069 403.59 168.25L403.304 158.5L392.39 158.214C385.859 158.044 381.062 158.342 380.448 158.956C379.883 159.521 379.227 164.037 378.99 168.992C378.753 173.946 378.229 178 377.825 178C377.421 178 376.779 173.871 376.398 168.825C376.017 163.779 375.476 159.279 375.196 158.825C374.915 158.371 369.538 158 363.245 158H351.804V167.441ZM373.197 161.582C373.531 162.452 373.804 166.015 373.804 169.5C373.804 179.074 373.874 179.002 364.447 178.985C359.968 178.976 355.684 178.577 354.926 178.097C353.836 177.406 353.698 175.432 354.266 168.612L354.984 160H363.787C370.892 160 372.707 160.305 373.197 161.582ZM401.371 161.314C401.649 162.037 401.522 166.2 401.09 170.564L400.304 178.5L391.89 178.793C385.845 179.004 383.235 178.722 382.621 177.793C381.778 176.516 381.673 162.202 382.496 160.75C382.731 160.337 386.96 160 391.894 160C398.384 160 401.006 160.364 401.371 161.314ZM429.257 160.923C429.571 161.431 429.529 165.723 429.165 170.461L428.503 179.076L420.404 178.788L412.304 178.5L412.009 170.588C411.847 166.237 411.945 162.075 412.228 161.338C412.829 159.771 428.311 159.393 429.257 160.923ZM457.257 160.923C457.571 161.431 457.531 165.706 457.168 170.423L456.509 179H448.763C439.686 179 439.804 179.139 439.804 168.502C439.804 163.569 440.213 161.001 441.054 160.662C443.293 159.759 456.67 159.975 457.257 160.923ZM485.304 169.5V178.5L477.892 178.797C472.638 179.008 470.241 178.716 469.657 177.797C468.652 176.213 468.526 161.611 469.509 160.628C469.897 160.241 473.609 160.053 477.759 160.212L485.304 160.5V169.5ZM437.527 173.25C437.306 175.038 437.124 173.575 437.124 170C437.124 166.425 437.306 164.962 437.527 166.75C437.749 168.538 437.749 171.462 437.527 173.25ZM533.796 174.974C537.991 177.626 525.051 180.041 519.304 177.678C517.385 176.889 517.405 176.799 519.804 175.463C522.657 173.875 531.564 173.563 533.796 174.974ZM528.539 180.854C535.341 180.57 536.149 180.735 536.697 182.519C537.031 183.609 537.079 192.375 536.804 202L536.304 219.5H526.304H516.304L516.031 200.531C515.881 190.098 515.987 180.966 516.266 180.238C516.66 179.21 517.246 179.166 518.881 180.041C520.088 180.687 524.214 181.034 528.539 180.854ZM490.804 183C488.717 184.349 349.804 184.349 349.804 183C349.804 182.343 374.21 182.005 421.054 182.015C467.424 182.025 491.78 182.369 490.804 183ZM523.004 190.2C521.271 191.933 521.528 194.44 523.633 196.345C527.091 199.475 531.804 197.834 531.804 193.5C531.804 190.67 529.948 189 526.804 189C525.374 189 523.664 189.54 523.004 190.2ZM529.804 193.563C529.804 195.631 528.073 196.185 525.885 194.818C524.035 193.663 524.006 193.435 525.496 191.788C526.719 190.436 527.432 190.277 528.456 191.126C529.197 191.741 529.804 192.838 529.804 193.563ZM353.333 192.614C352.158 193.789 351.804 196.542 351.804 204.512C351.804 210.347 351.367 215.152 350.804 215.5C350.175 215.889 349.799 213.591 349.79 209.309C349.775 201.665 349.01 197.754 347.69 198.57C346.169 199.51 346.598 220.584 348.164 221.884C349.154 222.705 369.139 222.943 421.414 222.757L493.304 222.5L492.941 210.5C492.741 203.9 492.326 198.08 492.018 197.566C490.915 195.724 489.943 200.644 489.859 208.5C489.8 214.056 489.477 216.042 488.804 215C488.271 214.175 487.828 208.943 487.819 203.372C487.802 192.194 486.792 189.866 482.868 191.966C480.967 192.983 480.804 193.975 480.804 204.535C480.804 211.512 480.413 216 479.804 216C479.216 216 478.804 212.5 478.804 207.5C478.804 202.5 478.392 199 477.804 199C477.236 199 476.774 202.13 476.734 206.25C476.695 210.238 476.321 214.376 475.902 215.446C475.196 217.249 475.092 217.212 474.486 214.946C474.126 213.601 473.825 208.533 473.818 203.684C473.803 194.137 472.81 191 469.804 191C466.393 191 465.511 194.496 466.259 205.051C466.724 211.617 466.6 215.008 465.877 215.455C465.143 215.908 464.804 213.253 464.804 207.059C464.804 195.399 462.976 195.143 462.593 206.75C462.201 218.614 460.371 218.073 460.055 206C459.918 200.775 459.585 195.537 459.314 194.36C458.713 191.748 456.278 190.676 453.872 191.964C451.155 193.418 447.703 202.246 448.43 205.881C449.188 209.67 448.036 216.261 446.753 215.469C446.231 215.146 445.804 210.458 445.804 205.052C445.804 196.807 445.492 194.841 443.867 192.861C441.45 189.916 439.336 190.924 436.026 196.596C434.327 199.51 433.786 201.895 433.896 206C434.102 213.703 433.944 215 432.804 215C432.208 215 431.804 211.188 431.804 205.565C431.804 194.179 430.832 191 427.349 191C423.715 191 420.492 197.681 420.6 204.99C420.645 208.021 420.397 211.85 420.049 213.5C419.444 216.364 419.382 216.296 418.684 212C418.281 209.525 417.919 204.883 417.878 201.684C417.784 194.28 416.589 192 412.804 192C409.297 192 407.81 194.278 407.789 199.684C407.773 203.67 406.461 206.872 405.489 205.299C405.178 204.796 404.61 202.018 404.226 199.125C403.405 192.933 400.45 190.049 396.883 191.958C394.714 193.119 394.006 195.109 393.571 201.271C393.171 206.918 391.608 206.229 390.332 199.843C389.078 193.561 387.462 191 384.753 191C380.838 191 379.804 193.638 379.804 203.63C379.804 214.511 378.382 215.429 377.516 205.107C376.897 197.717 374.918 192.641 372.259 191.621C369.851 190.697 369.105 190.842 367.375 192.571C366.139 193.808 365.804 196.47 365.804 205.071C365.804 211.69 365.41 216 364.804 216C364.251 216 363.804 213.375 363.804 210.125C363.804 202.435 362.868 198 361.245 198C360.526 198 359.794 196.811 359.62 195.358C359.219 192.003 355.546 190.401 353.333 192.614ZM370.804 205C370.804 211.667 370.41 216 369.804 216C368.69 216 368.374 195.764 369.471 194.667C370.726 193.412 370.804 194.018 370.804 205ZM385.997 195.25C386.22 195.938 386.225 200.887 386.007 206.25C385.718 213.366 385.261 216 384.314 216C383.601 216 382.745 215.288 382.411 214.418C381.408 211.804 381.727 198.012 382.839 195.934C384.023 193.722 385.402 193.423 385.997 195.25ZM400.587 205.142C400.833 214.381 400.648 215.846 399.167 216.414C396.563 217.413 395.835 215.247 395.833 206.5C395.831 196.74 396.514 193.798 398.683 194.213C400.034 194.472 400.351 196.29 400.587 205.142ZM415.635 206.002C415.983 214.656 415.813 216.059 414.353 216.62C411.405 217.751 410.612 215.448 410.532 205.52C410.473 198.178 410.797 195.623 411.871 194.959C414.402 193.394 415.226 195.812 415.635 206.002ZM429.657 205.146C430.016 214.353 428.864 218.292 426.778 214.992C425.701 213.288 425.45 195.688 426.487 194.65C428.174 192.964 429.331 196.797 429.657 205.146ZM442.804 205.559C442.804 215.16 441.933 218.384 440.411 214.418C439.624 212.367 439.622 197.638 440.409 195.588C441.843 191.851 442.804 195.854 442.804 205.559ZM471.326 203.311C471.941 212.229 471.384 216.476 469.732 215.456C468.682 214.807 468.442 195.695 469.471 194.667C470.563 193.574 470.698 194.203 471.326 203.311ZM485.789 204.668C485.806 213.642 485.095 217.066 483.68 214.834C482.674 213.246 482.504 195.633 483.486 194.652C484.938 193.199 485.774 196.834 485.789 204.668ZM356.971 195.978C357.733 198.213 356.605 215.995 355.735 215.457C354.528 214.711 354.514 195 355.721 195C356.225 195 356.787 195.44 356.971 195.978ZM456.978 202.75C457.369 212.033 456.997 216 455.738 216C455.219 216 454.804 211.335 454.804 205.5C454.804 193.368 456.493 191.232 456.978 202.75ZM360.537 212.224C360.326 214.576 360.15 212.9 360.147 208.5C360.143 204.1 360.316 202.176 360.531 204.224C360.746 206.272 360.749 209.872 360.537 212.224ZM523.322 208.625C521.261 210.685 521.716 213.882 524.313 215.598C528.803 218.562 534.536 211.471 530.208 208.306C527.8 206.545 525.285 206.662 523.322 208.625ZM528.604 210.2C530.571 212.167 529.972 214 527.363 214C524.363 214 523.225 212.402 524.84 210.456C526.309 208.687 527.041 208.637 528.604 210.2ZM484.304 220C479.621 221.192 349.568 221.192 350.304 220C350.707 219.347 374.602 219.041 419.113 219.118C456.618 219.183 485.954 219.58 484.304 220ZM354.027 229.557C351.96 231.004 351.804 231.882 351.804 242.057C351.804 248.686 351.41 253 350.804 253C350.251 253 349.804 250.375 349.804 247.125C349.804 243.894 349.524 239.851 349.182 238.141C347.956 232.011 346.804 236.314 346.804 247.024C346.804 256.783 347.007 258.039 348.738 258.965C350.951 260.149 486.662 260.268 490.804 259.089C493.303 258.378 493.304 258.374 492.962 247.444C492.774 241.431 492.38 236.123 492.087 235.649C490.826 233.609 489.834 238.105 489.819 245.917C489.811 250.546 489.579 254.108 489.304 253.833C489.028 253.558 488.554 247.97 488.25 241.416C487.945 234.862 487.323 229.124 486.866 228.665C486.409 228.206 484.97 227.981 483.669 228.165C481.365 228.491 481.291 228.81 480.804 240.5C480.381 250.656 480.189 251.749 479.554 247.61C479.141 244.921 478.804 241.209 478.804 239.36C478.804 232.461 476.956 236.32 476.223 244.75C475.283 255.55 474.05 252.731 473.904 239.45C473.801 230.167 472.994 228 469.639 228C466.81 228 465.818 231.243 465.603 241.184L465.402 250.5L465.061 242.75C464.873 238.488 464.323 235 463.837 235C463.351 235 462.634 239.09 462.243 244.089C461.331 255.75 459.84 253.791 459.819 240.905C459.806 232.5 459.549 231.079 457.745 229.447C454.276 226.307 452.401 228.538 451.731 236.603C451.321 241.525 451.107 242.283 450.981 239.25C450.589 229.833 447.828 237.738 447.789 248.39C447.777 251.412 447.517 252.103 446.804 251C446.271 250.175 445.828 245.424 445.819 240.441C445.802 230.132 444.62 227.326 440.71 228.311C437.033 229.238 433.785 236.988 433.795 244.809C433.801 248.762 433.431 250.887 432.804 250.5C432.254 250.16 431.798 246.196 431.79 241.691C431.783 237.186 431.509 232.502 431.182 231.283C430.523 228.824 427.96 227.619 425.444 228.585C423.103 229.483 419.807 237.521 419.789 242.377C419.777 245.407 419.516 246.103 418.804 245C418.271 244.175 417.828 240.72 417.819 237.321C417.803 230.791 416.317 228 412.855 228C409.716 228 408.648 230.651 407.8 240.541C406.577 254.818 405.696 254.583 403.894 239.5C403.118 233.005 402.335 230.144 401.081 229.221C398.458 227.291 396.492 228.13 394.557 232.003C392.361 236.402 391.247 236.401 389.051 232C387.081 228.053 383.923 227.024 381.429 229.518C380.244 230.702 379.804 233.005 379.804 238.012C379.804 241.791 379.354 245.16 378.804 245.5C378.213 245.865 377.804 244.736 377.804 242.737C377.804 237.902 374.933 230.14 372.704 228.946C370.489 227.761 367.382 229.05 366.422 231.554C366.082 232.439 365.797 237.739 365.789 243.332C365.778 250.266 365.465 253.023 364.804 252C364.271 251.175 363.828 248.419 363.819 245.875C363.796 238.865 362.766 234.801 361.168 235.414C360.183 235.792 359.804 235.004 359.804 232.576C359.804 230.433 359.231 228.994 358.222 228.607C356.217 227.838 356.607 227.75 354.027 229.557ZM357.797 234.75C357.784 241.32 356.541 252 355.788 252C354.41 252 353.545 234.017 354.847 232.448C356.841 230.045 357.804 230.797 357.797 234.75ZM371.633 239.394C372.265 253.162 369.573 256.703 368.356 243.707C367.617 235.824 368.364 230.687 370.161 231.286C370.813 231.503 371.426 234.882 371.633 239.394ZM386.483 241.751C386.162 246.309 385.602 250.518 385.238 251.106C383.913 253.25 382.801 250.263 382.177 242.885C381.442 234.189 382.774 229.9 385.506 232.168C386.786 233.23 386.963 234.959 386.483 241.751ZM400.304 241.258C400.304 250.74 399.679 253.275 397.803 251.399C396.686 250.282 396.247 233.711 397.29 232.023C397.673 231.402 398.509 231.071 399.146 231.286C399.916 231.547 400.304 234.891 400.304 241.258ZM415.389 234.599C416.231 239.088 415.313 249.891 413.975 251.229C411.738 253.466 410.804 250.631 410.804 241.608C410.804 236.507 411.104 232.033 411.471 231.667C413.1 230.037 414.767 231.284 415.389 234.599ZM429.414 233.58C430.192 236.68 429.405 249.219 428.322 250.97C427.72 251.944 427.368 251.92 426.694 250.857C425.686 249.266 425.493 232.645 426.471 231.667C427.764 230.373 428.773 231.029 429.414 233.58ZM443.392 234.619C444.097 238.375 443.288 250.849 442.274 251.863C440.809 253.329 439.833 248.715 439.819 240.25C439.807 232.815 440.09 231 441.259 231C442.139 231 442.982 232.43 443.392 234.619ZM456.804 242.059C456.804 249.177 456.448 252.898 455.804 252.5C455.241 252.152 454.804 247.323 454.804 241.441C454.804 235.147 455.201 231 455.804 231C456.41 231 456.804 235.353 456.804 242.059ZM485.734 239.75C485.695 244.563 485.321 249.376 484.902 250.446C484.196 252.249 484.092 252.212 483.486 249.946C483.126 248.601 482.825 243.788 482.818 239.25C482.807 232.577 483.091 231 484.304 231C485.528 231 485.791 232.608 485.734 239.75ZM471.197 233.582C472.142 236.044 471.911 250.816 470.918 251.43C469.554 252.273 468.833 248.263 468.818 239.75C468.805 232.501 469.796 229.931 471.197 233.582ZM438.964 283H508.804V329.505V376.011L421.054 375.755L333.304 375.5L333.042 330C332.797 287.544 332.897 284.409 334.542 283.144C335.938 282.069 339.711 281.914 352.714 282.394C361.739 282.727 400.552 283 438.964 283ZM378.471 303.667C377.211 304.927 377.708 340.504 379.004 341.8C379.898 342.694 390.477 343 420.433 343C456.983 343 460.817 342.844 462.363 341.298C463.873 339.788 464.013 337.658 463.594 322.46C463.335 313.036 462.8 304.802 462.405 304.163C461.877 303.309 450.7 303 420.412 303C397.711 303 378.837 303.3 378.471 303.667ZM458.304 307C457.91 307.638 444.163 308 420.352 308C387.231 308 382.949 308.178 382.411 309.582C381.385 312.255 381.74 335.011 382.839 337.066C383.83 338.917 385.318 339.003 417.589 339.07C437.342 339.111 450.476 339.496 449.304 340C446.544 341.186 383.685 341.21 381.812 340.026C380.626 339.276 380.245 336 379.953 324.046C379.751 315.776 379.846 308.333 380.164 307.505C380.664 306.201 385.95 306 419.832 306C445.637 306 458.712 306.34 458.304 307ZM456.583 323.259L456.862 335.727L423.583 336.451C405.279 336.85 389.067 336.862 387.554 336.479L384.804 335.783V323.142V310.5L420.554 310.646L456.304 310.792L456.583 323.259ZM536.804 313.852C536.804 314.789 518.949 316.208 517.606 315.378C517.147 315.094 517.03 314.443 517.347 313.931C518.067 312.765 536.804 312.689 536.804 313.852ZM534.604 322.586C535.009 328.118 533.49 329.172 525.641 328.8C519.488 328.509 519.294 328.417 518.976 325.629C518.795 324.05 518.921 321.668 519.256 320.336C519.838 318.016 520.17 317.926 527.084 318.207L534.304 318.5L534.604 322.586ZM513.969 332L514.304 334.5H527.933H541.562L542.036 354.5C542.298 365.5 542.326 374.837 542.099 375.25C541.872 375.663 535.011 376 526.852 376C514.248 376 511.927 375.762 511.411 374.418C510.608 372.326 510.645 339.965 511.458 333.196C512.096 327.888 513.34 327.296 513.969 332ZM214.02 380.376L191.778 401.5L233.541 402.254C256.511 402.668 276.593 402.893 278.169 402.754C280.82 402.519 279.361 400.884 258.648 380.876L236.262 359.251L214.02 380.376ZM542.304 381C542.304 382.322 529.975 382.53 438.359 382.755C376.25 382.907 334.044 382.64 333.496 382.092C332.991 381.587 332.882 380.683 333.253 380.083C333.735 379.302 363.646 379.063 438.116 379.245C529.948 379.47 542.304 379.678 542.304 381ZM347.003 391C347.427 392.925 347.541 395.537 347.256 396.803C346.793 398.867 346.248 399.075 342.022 398.803C337.46 398.51 337.293 398.388 336.98 395.112C336.802 393.248 336.93 390.635 337.263 389.306C337.801 387.163 338.345 386.923 342.051 387.194C345.931 387.478 346.288 387.753 347.003 391ZM539.075 390.286C539.369 392.093 539.371 394.814 539.081 396.333C538.576 398.972 538.323 399.082 533.428 398.798L528.304 398.5L527.991 394.136C527.527 387.663 528.052 387 533.642 387C538.407 387 538.557 387.091 539.075 390.286ZM358.304 399C357.575 400.18 358.521 402 359.863 402C360.381 402 360.804 401.1 360.804 400C360.804 397.891 359.349 397.309 358.304 399ZM389.421 399.556C388.556 401.81 388.62 402 390.245 402C392.352 402 392.992 400.401 391.41 399.088C390.353 398.211 389.896 398.319 389.421 399.556ZM404.28 399.039C403.272 400.669 405.511 402.693 406.846 401.358C407.57 400.634 407.444 399.946 406.435 399.109C405.361 398.218 404.799 398.199 404.28 399.039ZM496.804 400C496.804 401.506 497.326 402.046 498.554 401.81C499.516 401.624 500.304 400.81 500.304 400C500.304 399.19 499.516 398.376 498.554 398.19C497.326 397.954 496.804 398.494 496.804 400ZM327.022 400.154C327.268 400.895 328.272 401.655 329.252 401.846C330.392 402.066 330.873 401.706 330.586 400.846C330.34 400.105 329.336 399.345 328.356 399.154C327.216 398.934 326.735 399.294 327.022 400.154ZM365.25 400.087C364.881 400.685 365.04 401.636 365.604 402.2C366.866 403.462 368.804 402.396 368.804 400.441C368.804 398.757 366.23 398.501 365.25 400.087ZM373.3 400.007C372.957 400.561 373.4 401.292 374.284 401.631C376.198 402.365 377.265 401.556 376.345 400.067C375.515 398.723 374.11 398.696 373.3 400.007ZM381.149 400.543C380.823 401.392 380.827 402.356 381.156 402.686C382.021 403.55 384.887 400.944 384.234 399.887C383.38 398.506 381.802 398.842 381.149 400.543ZM396.3 400.007C395.54 401.236 398.292 402.434 399.772 401.52C400.358 401.158 400.578 400.443 400.261 399.931C399.498 398.696 397.081 398.742 396.3 400.007ZM412.347 399.931C411.607 401.128 413.488 402.313 414.82 401.49C415.939 400.799 415.204 399 413.804 399C413.319 399 412.663 399.419 412.347 399.931ZM419.347 399.931C418.477 401.338 420.549 402.216 422.945 401.455C424.614 400.926 424.773 400.594 423.686 399.906C421.876 398.76 420.064 398.77 419.347 399.931ZM427.3 400.007C426.54 401.236 429.292 402.434 430.772 401.52C431.358 401.158 431.578 400.443 431.261 399.931C430.498 398.696 428.081 398.742 427.3 400.007ZM435.347 399.931C434.528 401.255 436.318 402.124 438.298 401.364C439.632 400.852 439.701 400.55 438.638 399.876C436.9 398.774 436.053 398.789 435.347 399.931ZM443.347 399.931C442.528 401.255 444.318 402.124 446.298 401.364C447.632 400.852 447.701 400.55 446.638 399.876C444.9 398.774 444.053 398.789 443.347 399.931ZM451.263 400.067C450.343 401.556 451.41 402.365 453.324 401.631C454.208 401.292 454.651 400.561 454.308 400.007C453.498 398.696 452.093 398.723 451.263 400.067ZM458.532 399.605C457.443 400.694 458.759 402 460.946 402C462.121 402 462.796 401.475 462.554 400.75C462.079 399.322 459.539 398.599 458.532 399.605ZM466.347 399.931C465.607 401.128 467.488 402.313 468.82 401.49C469.939 400.799 469.204 399 467.804 399C467.319 399 466.663 399.419 466.347 399.931ZM474.347 399.931C473.528 401.255 475.318 402.124 477.298 401.364C478.632 400.852 478.701 400.55 477.638 399.876C475.9 398.774 475.053 398.789 474.347 399.931ZM481.304 400C480.467 401.354 481.596 403 483.363 403C484.156 403 484.804 402.1 484.804 401C484.804 398.93 482.391 398.24 481.304 400ZM489.3 400.007C488.515 401.276 491.315 402.42 492.863 401.464C493.705 400.943 493.651 400.518 492.661 399.89C490.873 398.758 490.054 398.786 489.3 400.007ZM505.492 399.646C504.187 400.95 504.81 402 506.887 402C508.051 402 508.796 401.476 508.575 400.813C508.088 399.351 506.418 398.719 505.492 399.646ZM512.804 400.5C512.804 401.417 513.288 402.005 513.879 401.808C514.47 401.611 514.954 401.023 514.954 400.5C514.954 399.977 514.47 399.389 513.879 399.192C513.288 398.995 512.804 399.583 512.804 400.5ZM520.947 399.89C520.001 400.49 519.926 400.957 520.697 401.434C521.966 402.218 523.804 401.334 523.804 399.941C523.804 398.778 522.732 398.759 520.947 399.89ZM543.3 400.007C542.515 401.276 545.315 402.42 546.863 401.464C547.705 400.943 547.651 400.518 546.661 399.89C544.873 398.758 544.054 398.786 543.3 400.007ZM550.954 399.95C551.174 400.61 551.68 401.116 552.079 401.075C553.275 400.951 553.043 399.58 551.754 399.15C551.094 398.93 550.734 399.29 550.954 399.95Z" fill="black"/>
<path d="M854.607 305.673V403H576.573V6.43018H698.304V305.673H854.607Z" fill="black"/>
</g>
<defs>
<clipPath id="clip0_832_6684">
<rect width="853" height="403" fill="white"/>
</clipPath>
</defs>
</svg>
